<mxfile host="app.diagrams.net" modified="2023-05-02T23:12:04.292Z" agent="Mozilla/5.0 (Windows NT 10.0; Win64; x64) AppleWebKit/537.36 (KHTML, like Gecko) Chrome/112.0.0.0 Safari/537.36" version="21.2.6" etag="jUODNRlYO2wyLUNE1XN6" type="gitlab">
  <diagram name="Page-1" id="GanUBqHPWo04LTXhJSEB">
    <mxGraphModel>
      <root>
        <mxCell id="0" />
        <mxCell id="1" parent="0" />
      </root>
    </mxGraphModel>
  </diagram>
</mxfile>
